<svg width="43" height="45" viewBox="0 0 43 45" fill="none" xmlns="http://www.w3.org/2000/svg">
<path d="M30.9932 29.6387C32.3789 28.927 33.9649 28.5219 35.654 28.5219H35.6597C35.8314 28.5219 35.9116 28.3248 35.7856 28.2153C34.0291 26.7081 32.0225 25.4907 29.8481 24.6131C29.8252 24.6022 29.8023 24.5967 29.7794 24.5858C33.335 22.1168 35.6482 18.104 35.6482 13.5766C35.6482 6.07664 29.3042 0 21.4772 0C13.6502 0 7.31184 6.07664 7.31184 13.5766C7.31184 18.104 9.62501 22.1168 13.1864 24.5858C13.1635 24.5967 13.1406 24.6022 13.1177 24.6131C10.5583 25.6478 8.2623 27.1314 6.28694 29.0255C4.32299 30.8999 2.75943 33.1219 1.68349 35.5675C0.62489 37.9624 0.0535723 40.5283 0.000143176 43.1277C-0.00138504 43.1862 0.00933359 43.2443 0.0316678 43.2987C0.054002 43.3531 0.0874997 43.4027 0.130187 43.4445C0.172875 43.4864 0.223888 43.5196 0.280221 43.5423C0.336555 43.565 0.397069 43.5767 0.458198 43.5766H3.88788C4.13408 43.5766 4.34021 43.385 4.34593 43.1496C4.46045 38.9234 6.22968 34.9653 9.36163 31.9653C12.5966 28.8613 16.9024 27.1533 21.4829 27.1533C24.7294 27.1533 27.8441 28.0128 30.5295 29.6223C30.5985 29.6637 30.6776 29.687 30.7591 29.6899C30.8405 29.6928 30.9212 29.6751 30.9932 29.6387ZM21.4829 22.9927C18.8605 22.9927 16.3928 22.0128 14.5319 20.2336C13.6164 19.3605 12.8905 18.3228 12.3962 17.1802C11.902 16.0377 11.649 14.813 11.6519 13.5766C11.6519 11.0639 12.6768 8.6989 14.5319 6.91971C16.387 5.14051 18.8548 4.16058 21.4829 4.16058C24.111 4.16058 26.573 5.14051 28.4339 6.91971C29.3494 7.79283 30.0753 8.83054 30.5695 9.97304C31.0638 11.1155 31.3168 12.3403 31.3139 13.5766C31.3139 16.0894 30.289 18.4544 28.4339 20.2336C26.573 22.0128 24.1053 22.9927 21.4829 22.9927ZM42.5419 36.0219H37.7324V31.4234C37.7324 31.1825 37.5262 30.9854 37.2743 30.9854H34.0679C33.816 30.9854 33.6099 31.1825 33.6099 31.4234V36.0219H28.8003C28.5484 36.0219 28.3423 36.219 28.3423 36.4599V39.5255C28.3423 39.7664 28.5484 39.9635 28.8003 39.9635H33.6099V44.562C33.6099 44.8029 33.816 45 34.0679 45H37.2743C37.5262 45 37.7324 44.8029 37.7324 44.562V39.9635H42.5419C42.7939 39.9635 43 39.7664 43 39.5255V36.4599C43 36.219 42.7939 36.0219 42.5419 36.0219Z" fill="white"/>
</svg>
