<svg width="46" height="37" viewBox="0 0 46 37" fill="none" xmlns="http://www.w3.org/2000/svg">
<path fill-rule="evenodd" clip-rule="evenodd" d="M18.4166 2.24999C18.417 1.91109 18.2843 1.58058 18.037 1.30471C17.7897 1.02884 17.4402 0.821406 17.0374 0.711448C16.6347 0.60149 16.1988 0.594507 15.7908 0.691475C15.3828 0.788443 15.0231 0.98451 14.7621 1.25224L0.470389 15.8772C0.19159 16.1625 0.0402222 16.5136 0.0402222 16.875C0.0402222 17.2364 0.19159 17.5875 0.470389 17.8727L14.7621 32.4977C15.0231 32.7655 15.3828 32.9615 15.7908 33.0585C16.1988 33.1555 16.6347 33.1485 17.0374 33.0385C17.4402 32.9286 17.7897 32.7211 18.037 32.4453C18.2843 32.1694 18.417 31.8389 18.4166 31.5V25.0162C29.3988 25.1982 34.6744 26.8574 37.3245 28.6611C39.8439 30.3755 40.3054 32.3921 40.7851 34.5046L40.9097 35.049C41.0013 35.4385 41.2686 35.788 41.6613 36.0316C42.054 36.2752 42.545 36.3963 43.042 36.3719C43.539 36.3475 44.0076 36.1795 44.3598 35.8993C44.7119 35.6192 44.9234 35.2463 44.9542 34.8507C45.3034 30.3852 44.7786 23.9145 40.8158 18.5016C36.9693 13.248 30.0419 9.20824 18.4166 8.78574V2.24999Z" fill="#F8F8F8"/>
</svg>
