<svg width="16" height="18" viewBox="0 0 16 18" fill="none" xmlns="http://www.w3.org/2000/svg">
<path d="M4.79202 1.57463H4.62677C4.71766 1.57463 4.79202 1.4959 4.79202 1.39967V1.57463H11.0712V1.39967C11.0712 1.4959 11.1456 1.57463 11.2365 1.57463H11.0712V3.14926H12.5584V1.39967C12.5584 0.627665 11.9656 0 11.2365 0H4.62677C3.89764 0 3.30484 0.627665 3.30484 1.39967V3.14926H4.79202V1.57463ZM15.2023 3.14926H0.660968C0.29537 3.14926 0 3.462 0 3.84909V4.54893C0 4.64515 0.0743589 4.72389 0.165242 4.72389H1.41282L1.923 16.1618C1.95605 16.9076 2.53853 17.4959 3.24287 17.4959H12.6204C13.3268 17.4959 13.9072 16.9098 13.9402 16.1618L14.4504 4.72389H15.698C15.7889 4.72389 15.8632 4.64515 15.8632 4.54893V3.84909C15.8632 3.462 15.5679 3.14926 15.2023 3.14926ZM12.4613 15.9212H3.40192L2.90206 4.72389H12.9612L12.4613 15.9212Z" fill="black"/>
</svg>
