<svg width="54" height="58" viewBox="0 0 54 58" fill="none" xmlns="http://www.w3.org/2000/svg">
<path d="M49.9131 28.3791L29.5365 6.8526L28.1707 5.40896C27.8595 5.0822 27.4387 4.8988 27 4.8988C26.5613 4.8988 26.1405 5.0822 25.8293 5.40896L4.08692 28.3791C3.76804 28.7148 3.51602 29.1147 3.34575 29.555C3.17547 29.9954 3.09038 30.4674 3.09551 30.9431C3.1166 32.9051 4.66172 34.4714 6.51797 34.4714H8.75918V52.6256H45.2408V34.4714H47.5295C48.4312 34.4714 49.2803 34.0979 49.9184 33.4235C50.2325 33.0924 50.4815 32.6988 50.6508 32.2654C50.82 31.832 50.9063 31.3674 50.9045 30.8985C50.9045 29.9509 50.5512 29.0535 49.9131 28.3791V28.3791ZM29.9531 48.6124H24.0469V37.2416H29.9531V48.6124ZM41.4439 30.4581V48.6124H33.3281V35.9039C33.3281 34.672 32.3842 33.6743 31.2187 33.6743H22.7813C21.6158 33.6743 20.6719 34.672 20.6719 35.9039V48.6124H12.5561V30.4581H7.49356L27.0053 9.85137L28.2234 11.1389L46.5117 30.4581H41.4439Z" fill="#FFFFFF"/>
</svg>
