<svg width="48" height="53" viewBox="0 0 48 53" fill="none" xmlns="http://www.w3.org/2000/svg">
<path fill-rule="evenodd" clip-rule="evenodd" d="M24 45.6923C33.941 45.6923 42 37.0134 42 26.3077C42 15.602 33.941 6.92307 24 6.92307C14.059 6.92307 6 15.602 6 26.3077C6 37.0134 14.059 45.6923 24 45.6923ZM24 47.8462C35.046 47.8462 44 38.2034 44 26.3077C44 14.412 35.046 4.76923 24 4.76923C12.954 4.76923 4 14.412 4 26.3077C4 38.2034 12.954 47.8462 24 47.8462Z" fill="#FFFFFF"/>
<path d="M12 38.8323C12 37.7198 12.772 36.7797 13.8 36.6569C21.515 35.7372 26.52 35.8202 34.218 36.6774C34.6024 36.7209 34.9667 36.8839 35.2665 37.1467C35.5663 37.4095 35.7885 37.7607 35.906 38.1572C36.0235 38.5538 36.0312 38.9786 35.9282 39.3798C35.8252 39.781 35.616 40.1412 35.326 40.4165C26.241 48.9446 21.049 48.8272 12.64 40.4251C12.23 40.0158 12 39.4343 12 38.8334V38.8323Z" fill="#FFFFFF"/>
<path fill-rule="evenodd" clip-rule="evenodd" d="M34.115 37.7478C26.478 36.8971 21.545 36.8174 13.909 37.7274C13.6576 37.7589 13.4259 37.8892 13.2582 38.0933C13.0905 38.2973 12.9986 38.5609 13 38.8334C13 39.1414 13.119 39.4332 13.32 39.6357C17.488 43.7991 20.646 45.6805 23.733 45.6923C26.831 45.7042 30.159 43.8378 34.669 39.6055C34.8123 39.4682 34.9154 39.289 34.9659 39.0897C35.0164 38.8904 35.012 38.6796 34.9533 38.483C34.8946 38.2863 34.7842 38.1122 34.6354 37.9819C34.4865 37.8516 34.3058 37.7707 34.115 37.7489V37.7478ZM13.69 35.5865C21.486 34.6571 26.564 34.7411 34.322 35.6058C34.9003 35.6709 35.4485 35.916 35.8994 36.3114C36.3503 36.7067 36.6844 37.2351 36.8607 37.8317C37.0371 38.4284 37.0481 39.0675 36.8924 39.6708C36.7367 40.2741 36.421 40.8154 35.984 41.2285C31.409 45.5232 27.599 47.8623 23.727 47.8462C19.844 47.8311 16.202 45.4522 11.961 41.2145C11.6574 40.9099 11.4153 40.5411 11.2499 40.1313C11.0846 39.7214 10.9995 39.2792 11 38.8323C10.9985 38.0294 11.2722 37.2541 11.7686 36.655C12.2649 36.0559 12.9491 35.675 13.69 35.5854V35.5865Z" fill="#FFFFFF"/>
<path d="M32 22C32 24.2849 31.1571 26.4763 29.6569 28.092C28.1566 29.7077 26.1217 30.6154 24 30.6154C21.8783 30.6154 19.8434 29.7077 18.3431 28.092C16.8429 26.4763 16 24.2849 16 22C16 19.7151 16.8429 17.5237 18.3431 15.908C19.8434 14.2923 21.8783 13.3846 24 13.3846C26.1217 13.3846 28.1566 14.2923 29.6569 15.908C31.1571 17.5237 32 19.7151 32 22V22Z" fill="#FFFFFF"/>
<path fill-rule="evenodd" clip-rule="evenodd" d="M24 28.4615C25.5913 28.4615 27.1174 27.7808 28.2426 26.569C29.3679 25.3572 30 23.7137 30 22C30 20.2863 29.3679 18.6428 28.2426 17.431C27.1174 16.2192 25.5913 15.5385 24 15.5385C22.4087 15.5385 20.8826 16.2192 19.7574 17.431C18.6321 18.6428 18 20.2863 18 22C18 23.7137 18.6321 25.3572 19.7574 26.569C20.8826 27.7808 22.4087 28.4615 24 28.4615V28.4615ZM24 30.6154C26.1217 30.6154 28.1566 29.7077 29.6569 28.092C31.1571 26.4763 32 24.2849 32 22C32 19.7151 31.1571 17.5237 29.6569 15.908C28.1566 14.2923 26.1217 13.3846 24 13.3846C21.8783 13.3846 19.8434 14.2923 18.3431 15.908C16.8429 17.5237 16 19.7151 16 22C16 24.2849 16.8429 26.4763 18.3431 28.092C19.8434 29.7077 21.8783 30.6154 24 30.6154V30.6154Z" fill="#FFFFFF"/>
</svg>
