<svg width="21" height="21" viewBox="0 0 21 21" fill="none" xmlns="http://www.w3.org/2000/svg">
<path d="M15.5 10C16.9587 10 18.3576 10.5795 19.3891 11.6109C20.4205 12.6424 21 14.0413 21 15.5C21 16.9587 20.4205 18.3576 19.3891 19.3891C18.3576 20.4205 16.9587 21 15.5 21C14.0413 21 12.6424 20.4205 11.6109 19.3891C10.5795 18.3576 10 16.9587 10 15.5C10 14.0413 10.5795 12.6424 11.6109 11.6109C12.6424 10.5795 14.0413 10 15.5 10V10ZM15.5 17.751C15.3342 17.751 15.1753 17.8169 15.0581 17.9341C14.9408 18.0513 14.875 18.2102 14.875 18.376C14.875 18.5418 14.9408 18.7007 15.0581 18.8179C15.1753 18.9352 15.3342 19.001 15.5 19.001C15.6658 19.001 15.8247 18.9352 15.9419 18.8179C16.0592 18.7007 16.125 18.5418 16.125 18.376C16.125 18.2102 16.0592 18.0513 15.9419 17.9341C15.8247 17.8169 15.6658 17.751 15.5 17.751ZM15.5 11.874C14.453 11.874 13.636 12.692 13.647 13.829C13.6483 13.9616 13.7023 14.0883 13.797 14.1811C13.8917 14.2739 14.0194 14.3253 14.152 14.324C14.2846 14.3227 14.4113 14.2687 14.5041 14.174C14.5969 14.0793 14.6483 13.9516 14.647 13.819C14.641 13.24 15.007 12.874 15.5 12.874C15.973 12.874 16.354 13.266 16.354 13.824C16.354 14.016 16.299 14.166 16.13 14.385L16.036 14.501L15.936 14.614L15.672 14.904L15.535 15.062C15.152 15.518 15 15.854 15 16.372C15 16.5046 15.0527 16.6318 15.1464 16.7256C15.2402 16.8193 15.3674 16.872 15.5 16.872C15.6326 16.872 15.7598 16.8193 15.8536 16.7256C15.9473 16.6318 16 16.5046 16 16.372C16 16.169 16.059 16.012 16.24 15.782L16.324 15.677L16.425 15.562L16.691 15.272L16.826 15.116C17.204 14.666 17.354 14.333 17.354 13.824C17.354 12.72 16.532 11.874 15.5 11.874V11.874ZM10.023 12C9.72327 12.4675 9.48498 12.9716 9.314 13.5H2.253C2.15447 13.4999 2.05688 13.5192 1.96583 13.5568C1.87478 13.5945 1.79204 13.6497 1.72237 13.7194C1.6527 13.7891 1.59746 13.8718 1.55982 13.9628C1.52218 14.0539 1.50287 14.1515 1.503 14.25V14.827C1.503 15.362 1.695 15.88 2.043 16.287C3.296 17.756 5.263 18.501 8 18.501C8.597 18.501 9.157 18.466 9.68 18.395C9.926 18.89 10.233 19.349 10.592 19.762C9.797 19.922 8.932 20.002 8 20.002C4.854 20.002 2.468 19.096 0.901998 17.262C0.322383 16.5831 0.00396706 15.7197 0.0039978 14.827V14.249C0.0039978 13.6525 0.240945 13.0805 0.662715 12.6587C1.08448 12.237 1.65653 12 2.253 12H10.023ZM8 0.00500488C8.65661 0.00500487 9.30679 0.134333 9.91341 0.385607C10.52 0.636881 11.0712 1.00518 11.5355 1.46947C11.9998 1.93376 12.3681 2.48496 12.6194 3.09159C12.8707 3.69822 13 4.3484 13 5.005C13 5.66161 12.8707 6.31179 12.6194 6.91842C12.3681 7.52505 11.9998 8.07625 11.5355 8.54054C11.0712 9.00483 10.52 9.37313 9.91341 9.6244C9.30679 9.87568 8.65661 10.005 8 10.005C6.67392 10.005 5.40215 9.47822 4.46446 8.54054C3.52678 7.60286 3 6.33109 3 5.005C3 3.67892 3.52678 2.40715 4.46446 1.46947C5.40215 0.531789 6.67392 0.00500488 8 0.00500488V0.00500488ZM8 1.505C7.54037 1.505 7.08525 1.59553 6.66061 1.77143C6.23597 1.94732 5.85013 2.20513 5.52512 2.53013C5.20012 2.85514 4.94231 3.24097 4.76642 3.66561C4.59053 4.09025 4.5 4.54538 4.5 5.005C4.5 5.46463 4.59053 5.91976 4.76642 6.3444C4.94231 6.76904 5.20012 7.15487 5.52512 7.47988C5.85013 7.80488 6.23597 8.06269 6.66061 8.23858C7.08525 8.41448 7.54037 8.505 8 8.505C8.92826 8.505 9.81849 8.13626 10.4749 7.47988C11.1312 6.8235 11.5 5.93326 11.5 5.005C11.5 4.07675 11.1312 3.18651 10.4749 2.53013C9.81849 1.87375 8.92826 1.505 8 1.505V1.505Z" fill="white"/>
</svg>
