<svg width="27" height="27" viewBox="0 0 27 27" fill="none" xmlns="http://www.w3.org/2000/svg">
<path d="M19.184 18.1213C20.0112 17.7023 20.958 17.4639 21.9663 17.4639H21.9697C22.0722 17.4639 22.1201 17.3479 22.0449 17.2834C20.9963 16.3961 19.7985 15.6795 18.5005 15.1629C18.4868 15.1564 18.4731 15.1532 18.4594 15.1468C20.582 13.6934 21.9629 11.3312 21.9629 8.66602C21.9629 4.25098 18.1757 0.673828 13.5034 0.673828C8.83102 0.673828 5.04733 4.25098 5.04733 8.66602C5.04733 11.3312 6.42819 13.6934 8.55416 15.1468C8.54049 15.1532 8.52682 15.1564 8.51315 15.1629C6.98532 15.772 5.61471 16.6453 4.43551 17.7604C3.26312 18.8637 2.32975 20.1718 1.68746 21.6114C1.05553 23.0212 0.714475 24.5317 0.682581 26.0619C0.681668 26.0963 0.688067 26.1305 0.701399 26.1626C0.714732 26.1946 0.734728 26.2238 0.760211 26.2484C0.785693 26.273 0.816146 26.2926 0.849775 26.306C0.883403 26.3193 0.919527 26.3262 0.956018 26.3262H3.00338C3.15035 26.3262 3.2734 26.2134 3.27682 26.0748C3.34518 23.5869 4.40133 21.2569 6.27096 19.4909C8.20211 17.6637 10.7724 16.6582 13.5068 16.6582C15.4448 16.6582 17.3042 17.1642 18.9072 18.1116C18.9484 18.136 18.9956 18.1498 19.0442 18.1515C19.0928 18.1532 19.1411 18.1427 19.184 18.1213ZM13.5068 14.209C11.9414 14.209 10.4682 13.6321 9.35738 12.5848C8.81083 12.0708 8.37755 11.4599 8.08248 10.7874C7.78742 10.1148 7.6364 9.39384 7.63815 8.66602C7.63815 7.18682 8.24996 5.79463 9.35738 4.74727C10.4648 3.6999 11.938 3.12305 13.5068 3.12305C15.0756 3.12305 16.5454 3.6999 17.6562 4.74727C18.2028 5.26125 18.6361 5.87212 18.9311 6.54467C19.2262 7.21723 19.3772 7.93819 19.3755 8.66602C19.3755 10.1452 18.7636 11.5374 17.6562 12.5848C16.5454 13.6321 15.0722 14.209 13.5068 14.209ZM26.0781 21.8789H17.875C17.7246 21.8789 17.6015 21.9949 17.6015 22.1367V23.9414C17.6015 24.0832 17.7246 24.1992 17.875 24.1992H26.0781C26.2285 24.1992 26.3515 24.0832 26.3515 23.9414V22.1367C26.3515 21.9949 26.2285 21.8789 26.0781 21.8789Z" fill="white"/>
</svg>
