<svg width="72" height="56" viewBox="0 0 72 56" fill="none" xmlns="http://www.w3.org/2000/svg">
<path d="M21.6 28C28.5637 28 34.2 22.5203 34.2 15.75C34.2 8.97969 28.5637 3.5 21.6 3.5C14.6362 3.5 9 8.97969 9 15.75C9 22.5203 14.6362 28 21.6 28ZM30.24 31.5H29.3062C26.9662 32.5938 24.3675 33.25 21.6 33.25C18.8325 33.25 16.245 32.5938 13.8937 31.5H12.96C5.805 31.5 0 37.1438 0 44.1V47.25C0 50.1484 2.41875 52.5 5.4 52.5H37.8C40.7812 52.5 43.2 50.1484 43.2 47.25V44.1C43.2 37.1438 37.395 31.5 30.24 31.5ZM54 28C59.9625 28 64.8 23.2969 64.8 17.5C64.8 11.7031 59.9625 7 54 7C48.0375 7 43.2 11.7031 43.2 17.5C43.2 23.2969 48.0375 28 54 28ZM59.4 31.5H58.9725C57.4087 32.025 55.755 32.375 54 32.375C52.245 32.375 50.5912 32.025 49.0275 31.5H48.6C46.305 31.5 44.19 32.1453 42.3337 33.1844C45.0787 36.0609 46.8 39.8781 46.8 44.1V48.3C46.8 48.5406 46.7437 48.7703 46.7325 49H66.6C69.5812 49 72 46.6484 72 43.75C72 36.9797 66.3637 31.5 59.4 31.5V31.5Z" fill="#FFFFFF"/>
</svg>
