<svg width="47" height="45" viewBox="0 0 47 45" fill="none" xmlns="http://www.w3.org/2000/svg">
<path d="M23.6045 2.92499C12.0895 2.92499 2.71558 10.775 2.71558 20.425C2.71558 30.075 12.0895 37.925 23.6045 37.925C25.7764 37.9287 27.9383 37.6426 30.0278 37.075L37.2475 41.475C37.5385 41.6535 37.8916 41.7143 38.2293 41.644C38.567 41.5737 38.8619 41.3781 39.0492 41.1C39.1849 40.8988 39.2574 40.6645 39.2581 40.425V32.0125C40.8916 30.5121 42.1952 28.714 43.0921 26.724C43.9889 24.7339 44.4609 22.5923 44.4803 20.425C44.4934 10.775 35.1195 2.92499 23.6045 2.92499ZM37.0386 30.5625C36.9074 30.679 36.8026 30.8202 36.7307 30.9772C36.6588 31.1341 36.6214 31.3036 36.6208 31.475V38.15L30.9025 34.6625C30.743 34.5659 30.5635 34.5037 30.3765 34.4799C30.1894 34.4562 29.9992 34.4716 29.8189 34.525C27.8067 35.1234 25.7115 35.4268 23.6045 35.425C13.5256 35.425 5.32669 28.7 5.32669 20.425C5.32669 12.15 13.5256 5.42499 23.6045 5.42499C33.6834 5.42499 41.8822 12.15 41.8822 20.425C41.8509 22.3436 41.4043 24.2351 40.5706 25.98C39.7369 27.7249 38.5342 29.2852 37.0386 30.5625Z" fill="white"/>
<path d="M40.6028 19.775L40.4722 19.5875L37.2083 16.8C36.7881 16.4339 36.2954 16.1523 35.7595 15.9719C35.2235 15.7916 34.6551 15.7161 34.0881 15.75L27.0642 16.175L22.3772 12.425C22.1871 12.2719 21.9467 12.1879 21.6983 12.1875H17.7033C17.5201 12.1855 17.3397 12.2309 17.1811 12.3189C17.0226 12.4069 16.8918 12.5343 16.8025 12.6875C16.7093 12.8368 16.6602 13.0074 16.6602 13.1813C16.6602 13.3551 16.7093 13.5257 16.8025 13.675L18.5781 16.725L12.4289 17.0875L14.1392 18.9875L34.2317 17.7375C34.5213 17.7197 34.8117 17.7582 35.0854 17.8506C35.3591 17.9429 35.6105 18.0873 35.8244 18.275L38.9056 20.9375C38.9155 20.9659 38.9155 20.9966 38.9056 21.025C38.9056 21.1 38.7881 21.0875 38.775 21.1H28.4872L28.0303 21.5625L21.2544 28.475H19.1133L22.6775 21.1H11.1494L9.30861 17.7L8.49917 16.25C8.34592 16.0694 8.13169 15.9456 7.89339 15.9C7.65508 15.8544 7.40762 15.8897 7.19361 16C6.95 16.1314 6.77065 16.3498 6.6948 16.6075C6.61896 16.8652 6.65278 17.1411 6.78889 17.375L9.4 22.3C9.53436 22.5464 9.73703 22.7526 9.98577 22.8959C10.2345 23.0393 10.5197 23.1142 10.81 23.1125H19.3875L16.8547 28.3375C16.7443 28.5689 16.6971 28.8234 16.7177 29.077C16.7382 29.3307 16.8258 29.5752 16.9722 29.7875C17.1133 29.9976 17.3062 30.1714 17.5338 30.2934C17.7615 30.4155 18.0169 30.4821 18.2778 30.4875H21.4503C21.6669 30.4889 21.8814 30.4462 22.0795 30.3621C22.2776 30.2781 22.4547 30.1546 22.5992 30L29.3619 23.1125H38.7097C39.1192 23.1232 39.5234 23.0218 39.8749 22.8204C40.2264 22.6189 40.5106 22.3256 40.6942 21.975C40.8848 21.6337 40.9768 21.2498 40.9607 20.8631C40.9446 20.4764 40.8211 20.1008 40.6028 19.775ZM19.4789 14.1375H21.3197L24.0483 16.35L20.8889 16.5375L19.4789 14.1375Z" fill="white"/>
</svg>
